<svg width="28" height="28" viewBox="0 0 28 28" fill="none" xmlns="http://www.w3.org/2000/svg">
<path d="M14.0001 24.6667C16.8291 24.6667 19.5422 23.5429 21.5426 21.5426C23.5429 19.5422 24.6667 16.8291 24.6667 14.0001C24.6667 11.1711 23.5429 8.458 21.5426 6.45761C19.5422 4.45722 16.8291 3.33341 14.0001 3.33341C11.1711 3.33341 8.458 4.45722 6.45761 6.45761C4.45722 8.458 3.33341 11.1711 3.33341 14.0001C3.33341 16.8291 4.45722 19.5422 6.45761 21.5426C8.458 23.5429 11.1711 24.6667 14.0001 24.6667ZM14.0001 27.3334C6.63608 27.3334 0.666748 21.3641 0.666748 14.0001C0.666748 6.63608 6.63608 0.666748 14.0001 0.666748C21.3641 0.666748 27.3334 6.63608 27.3334 14.0001C27.3334 21.3641 21.3641 27.3334 14.0001 27.3334ZM14.0001 19.3334C15.4146 19.3334 16.7711 18.7715 17.7713 17.7713C18.7715 16.7711 19.3334 15.4146 19.3334 14.0001C19.3334 12.5856 18.7715 11.229 17.7713 10.2288C16.7711 9.22865 15.4146 8.66675 14.0001 8.66675C12.5856 8.66675 11.229 9.22865 10.2288 10.2288C9.22865 11.229 8.66675 12.5856 8.66675 14.0001C8.66675 15.4146 9.22865 16.7711 10.2288 17.7713C11.229 18.7715 12.5856 19.3334 14.0001 19.3334ZM14.0001 22.0001C11.8783 22.0001 9.84352 21.1572 8.34323 19.6569C6.84294 18.1566 6.00008 16.1218 6.00008 14.0001C6.00008 11.8783 6.84294 9.84352 8.34323 8.34323C9.84352 6.84294 11.8783 6.00008 14.0001 6.00008C16.1218 6.00008 18.1566 6.84294 19.6569 8.34323C21.1572 9.84352 22.0001 11.8783 22.0001 14.0001C22.0001 16.1218 21.1572 18.1566 19.6569 19.6569C18.1566 21.1572 16.1218 22.0001 14.0001 22.0001ZM14.0001 16.6667C13.2928 16.6667 12.6146 16.3858 12.1145 15.8857C11.6144 15.3856 11.3334 14.7073 11.3334 14.0001C11.3334 13.2928 11.6144 12.6146 12.1145 12.1145C12.6146 11.6144 13.2928 11.3334 14.0001 11.3334C14.7073 11.3334 15.3856 11.6144 15.8857 12.1145C16.3858 12.6146 16.6667 13.2928 16.6667 14.0001C16.6667 14.7073 16.3858 15.3856 15.8857 15.8857C15.3856 16.3858 14.7073 16.6667 14.0001 16.6667Z" fill="#F42011"/>
</svg>
