<svg width="25" height="28" viewBox="0 0 25 28" fill="none" xmlns="http://www.w3.org/2000/svg">
<path d="M14 0.666694C15.9763 0.664684 17.9283 1.10292 19.7141 1.94958C21.4999 2.79623 23.0747 4.03003 24.324 5.56136L15.8854 14L24.324 22.4387C23.0747 23.97 21.4999 25.2038 19.7141 26.0505C17.9283 26.8971 15.9763 27.3354 14 27.3334C6.63602 27.3334 0.666687 21.364 0.666687 14C0.666687 6.63603 6.63602 0.666694 14 0.666694ZM14 4.66669C13.4696 4.66669 12.9609 4.87741 12.5858 5.25248C12.2107 5.62755 12 6.13626 12 6.66669C12 7.19713 12.2107 7.70583 12.5858 8.08091C12.9609 8.45598 13.4696 8.66669 14 8.66669C14.5305 8.66669 15.0392 8.45598 15.4142 8.08091C15.7893 7.70583 16 7.19713 16 6.66669C16 6.13626 15.7893 5.62755 15.4142 5.25248C15.0392 4.87741 14.5305 4.66669 14 4.66669Z" fill="#89DBFF"/>
</svg>
