<svg width="28" height="28" viewBox="0 0 28 28" fill="none" xmlns="http://www.w3.org/2000/svg">
<path d="M14 12.6667C15.7681 12.6667 17.4638 13.3691 18.714 14.6193C19.9642 15.8696 20.6666 17.5652 20.6666 19.3334V27.3334H7.33329V19.3334C7.33329 17.5652 8.03567 15.8696 9.28591 14.6193C10.5362 13.3691 12.2318 12.6667 14 12.6667ZM5.05063 16.6747C4.83844 17.3904 4.71309 18.129 4.67729 18.8747L4.66663 19.3334V27.3334H0.666626V21.3334C0.666364 20.1835 1.09066 19.0739 1.85814 18.2176C2.62561 17.3613 3.68222 16.8185 4.82529 16.6934L5.05196 16.6747H5.05063ZM22.9493 16.6747C24.1358 16.747 25.2501 17.2693 26.0648 18.135C26.8794 19.0007 27.3331 20.1446 27.3333 21.3334V27.3334H23.3333V19.3334C23.3333 18.4094 23.2 17.5174 22.9493 16.6747ZM5.33329 8.66669C6.21735 8.66669 7.06519 9.01788 7.69032 9.643C8.31544 10.2681 8.66663 11.116 8.66663 12C8.66663 12.8841 8.31544 13.7319 7.69032 14.357C7.06519 14.9822 6.21735 15.3334 5.33329 15.3334C4.44924 15.3334 3.60139 14.9822 2.97627 14.357C2.35115 13.7319 1.99996 12.8841 1.99996 12C1.99996 11.116 2.35115 10.2681 2.97627 9.643C3.60139 9.01788 4.44924 8.66669 5.33329 8.66669ZM22.6666 8.66669C23.5507 8.66669 24.3985 9.01788 25.0236 9.643C25.6488 10.2681 26 11.116 26 12C26 12.8841 25.6488 13.7319 25.0236 14.357C24.3985 14.9822 23.5507 15.3334 22.6666 15.3334C21.7826 15.3334 20.9347 14.9822 20.3096 14.357C19.6845 13.7319 19.3333 12.8841 19.3333 12C19.3333 11.116 19.6845 10.2681 20.3096 9.643C20.9347 9.01788 21.7826 8.66669 22.6666 8.66669ZM14 0.666687C15.4144 0.666687 16.771 1.22859 17.7712 2.22878C18.7714 3.22898 19.3333 4.58553 19.3333 6.00002C19.3333 7.41451 18.7714 8.77106 17.7712 9.77126C16.771 10.7715 15.4144 11.3334 14 11.3334C12.5855 11.3334 11.2289 10.7715 10.2287 9.77126C9.22853 8.77106 8.66663 7.41451 8.66663 6.00002C8.66663 4.58553 9.22853 3.22898 10.2287 2.22878C11.2289 1.22859 12.5855 0.666687 14 0.666687Z" fill="#FFD736"/>
</svg>
