<svg width="28" height="24" viewBox="0 0 28 24" fill="none" xmlns="http://www.w3.org/2000/svg">
<path d="M0.666687 8H26C26.3536 8 26.6928 8.14048 26.9428 8.39052C27.1929 8.64057 27.3334 8.97971 27.3334 9.33333V22.6667C27.3334 23.0203 27.1929 23.3594 26.9428 23.6095C26.6928 23.8595 26.3536 24 26 24H2.00002C1.6464 24 1.30726 23.8595 1.05721 23.6095C0.807163 23.3594 0.666687 23.0203 0.666687 22.6667V8ZM2.00002 0H22V5.33333H0.666687V1.33333C0.666687 0.979711 0.807163 0.640573 1.05721 0.390524C1.30726 0.140476 1.6464 0 2.00002 0ZM18 14.6667V17.3333H22V14.6667H18Z" fill="#50D38D"/>
</svg>
